<svg viewBox="0 0 6.085 5.427" xmlns="http://www.w3.org/2000/svg"><g stroke="#fc3c44" transform="translate(-114.366 -90.84)"><g fill="none" transform="translate(117.409 93.554)scale(.26458)"><ellipse rx="11" ry="4.2"/><ellipse rx="11" ry="4.2" transform="rotate(60)"/><ellipse rx="11" ry="4.2" transform="rotate(120)"/></g><path d="M117.14 92.817a.16.16 0 0 0-.091.028.16.16 0 0 0-.093.145v1.132c0 .065.039.12.087.148l.003.002.011.003a.18.18 0 0 0 .172-.01l.907-.562a.17.17 0 0 0 .079-.148.17.17 0 0 0-.073-.143l-.003-.003-.003-.002-.908-.565h-.002l-.003-.002a.2.2 0 0 0-.084-.024zm.079.332.652.406-.652.404z" fill="#fc3c44" stroke="none"/></g></svg>