<svg xmlns="http://www.w3.org/2000/svg" viewBox="0 0 751.1 669"><path d="m86.2 669-.7-.2A81 81 0 0 1 34 601.3v-.6h.6a188 188 0 0 0 18.5 2.4l-19.3-12.7v-.7c.3-6.2 4.4-11.7 10.3-13.7 6-2.2 12.6-.6 16.9 4.1l5.9 6.3c6.7 7 13.7 14.1 18.1 22.6a49 49 0 0 1 1 42z" fill="#f2f2f2"/><path d="M476.6 656.7v-.1a205 205 0 0 0-10.3-55.7q-.6-2.7.2-5.5a11 11 0 0 1 12.3-7.5 24 24 0 0 0 16-2.7c3.2-1.8 7-2 10.2-.7a11 11 0 0 1 6.5 8c.1 19 3.6 37.9 10.3 55.7.7 3.7-.4 7.5-3 10.2a11 11 0 0 1-8.7 3.2q-8.6-.6-18.2 3.6-3.5 1.5-7.2.5a12 12 0 0 1-8.1-9" fill="#fc3c44"/><path d="M291.4 396.5v248.7h174.2V396.5a8.4 8.4 0 0 0-8.4-8.4H299.8a8.4 8.4 0 0 0-8.4 8.4m68 85.5a18.6 18.6 0 0 1 37.2 0v28.8a18.6 18.6 0 0 1-37.2 0z" fill="#f2f2f2"/><path d="M290.8 637.2v24c0 2.6 2.1 4.7 4.7 4.7h166c2.5 0 4.6-2 4.6-4.7v-24zM17.3 21.8v454a22 22 0 0 0 21.8 22h673c12 0 21.7-9.9 21.7-22v-454c0-12-9.7-21.8-21.8-21.8H39.1c-12 0-21.8 9.8-21.8 21.8" fill="#e6e6e6"/><path d="M706.4 15.8H44.7c-6.4 0-11.6 5.2-11.6 11.7v442.8c0 6.4 5.2 11.6 11.6 11.7h661.7c6.4 0 11.7-5.3 11.7-11.7V27.5c0-6.5-5.3-11.7-11.7-11.7m-167 314.6a11 11 0 0 1-10.3 6.3q-9.6-1.3-19.1-1.7 1.5 1.1 2.5 2.5 2.9 4.2 1.6 9.2a39 39 0 0 0 .2 18.5q.9 3.7-.8 7.2c-2 3.9-6 6.3-10.4 6.3a205 205 0 0 0-45.8-1.2l-.2 1.2a39 39 0 0 0 .2 18.5q.9 3.8-.8 7.2c-2 3.9-6 6.3-10.4 6.3a205 205 0 0 0-47-1q-.1 5.8 1.2 11.5.9 3.7-.8 7.2c-2 3.9-6 6.3-10.4 6.3a205 205 0 0 0-56.6 0q-3 0-5.5-1.3a11 11 0 0 1-5-13.3q.8-2.4 1.2-5a205 205 0 0 0-51.7.6q-3 0-5.5-1.3a11 11 0 0 1-5-13.3q3-8.1.2-16.4-1.3-3.9 0-7.7-19.6-.9-38.7 1.7-3 0-5.5-1.3a11 11 0 0 1-5-13.3q3-8.1.2-16.4c-1.2-3.3-.8-7 1.2-10a11 11 0 0 1 9-5q9.9 1.8 19.9 2.3a11 11 0 0 1-4.4-13c2-5.2 2.2-11 .3-16.3-1.2-3.3-.8-7 1.2-10l.2-.4q-7 .5-14.1 1.4-3 0-5.5-1.3a11 11 0 0 1-5-13.3q3-8.1.2-16.4c-1.2-3.3-.8-7 1.2-10a11 11 0 0 1 9-5q11.9 2.1 23.9 2.4c-2-3-2.6-6.7-1.4-10q3-8.1.3-16.4c-1.2-3.3-.8-7 1.2-10a11 11 0 0 1 9-5q10 1.8 20.2 2.3-2.2-4.4-.7-9c2-5.2 2.2-11 .3-16.3-1.2-3.3-.8-7 1.2-10a11 11 0 0 1 9-5q11.8 2.1 23.8 2.4-1.6-4-.3-8 3-8.1.3-16.4c-1.2-3.3-.8-7 1.2-10a11 11 0 0 1 9-5 163 163 0 0 0 56.6 0q2.3.5 4.4 0a164 164 0 0 0 57.5 0c3.4.3 6.4 2 8.2 5 2 3 2.4 6.7 1.2 10a24 24 0 0 0 .3 16.4q1.4 4-.3 8a165 165 0 0 0 24.6-2.3q5.3.4 8.2 4.8c2 3 2.4 6.8 1.2 10.1a24 24 0 0 0 .3 16.4q1.5 4.5-.7 8.9a165 165 0 0 0 21-2.2q5.3.4 8.2 4.8c2 3 2.4 6.8 1.2 10.1a24 24 0 0 0 .3 16.4c1.2 3.4.7 7.1-1.4 10q1.4 1 2.3 2.4 2.9 4.2 1.6 9.2a39 39 0 0 0 .2 18.5 11 11 0 0 1-2.3 9.4q7-.6 14-1.9c3.8 0 7.3 1.8 9.5 4.8q2.9 4.2 1.6 9.2a39 39 0 0 0 .2 18.5q.9 3.8-.8 7.2" fill="#fff"/><path d="M685 76.8H65.7a2.5 2.5 0 0 1 0-5h619.1a2.5 2.5 0 0 1 0 5" fill="#e6e6e6"/><path d="M382.9 423h-.1a205 205 0 0 0-56.6 0q-3 0-5.5-1.4a11 11 0 0 1-5-13.3q3-8.1.2-16.4c-1.2-3.3-.7-7 1.2-10a11 11 0 0 1 9-5c18.8 3.3 38 3.3 56.7 0 3.7 0 7.3 1.8 9.5 4.8q2.8 4.2 1.5 9.2a39 39 0 0 0 .2 18.5q.9 3.7-.8 7.2c-2 3.9-6 6.4-10.3 6.3" fill="#fc3c44"/><path d="m440.6 324.9-15.1-12.5c-11.3 6-28.6 29.6-28.6 29.6l-39.7 28.6a8.7 8.7 0 1 0 8 12.6l54.1-28.5z" fill="#ffb8b8"/><path d="M466 277.3a20.7 20.7 0 0 1-.2 31.9l-9.6 7.8s-24 34.5-36.5 38.5l-32 16.7-14.4-14.5 29-23.6s13.3-12.7 14.7-21.9c.8-5.7 10.4-21 20-32.5a20.6 20.6 0 0 1 29-2.4" fill="#3f3d56"/><path fill="#ffb6b6" d="M435 651.7h-13.6l-6.5-52.7H435z"/><path d="M435.5 666h-42v-.6c0-9 7.4-16.4 16.4-16.4l7.7-5.8 14.3 5.8h3.6z" fill="#2f2e41"/><path fill="#ffb6b6" d="m539 579.8-6.4 12.1-49.5-19.2 9.6-17.8z"/><path d="m551.8 586.2-19.9 37-.5-.3a16.4 16.4 0 0 1-6.6-22.2l-1.5-9.5 11.9-9.8 1.7-3.2zM409.2 410.6l-12 96.4 6 32.3 108.4 47.5 6-19.6c-27.7-17-57.3-42.6-76-44.5 0 0-1.5-17.1 11.9-27.7 2.7-2 2-5 3.2-7.6.7-1.8 3.7-3.6 4.5-5.5 1-2.4-.3-4.8.7-7.2.6-1.3 2.7-1.4 3.3-2.8 1-2.3.3-6 1.2-8.2l5.6-14.3c5.4-14 9.2-25.1 8.8-27.5-1.6-7.5-71.6-11.3-71.6-11.3" fill="#2f2e41"/><path d="m407.2 506.7-6.3 40.7 15.9 83h21c7.6-27.9 8-64.5.8-95.6z" fill="#2f2e41"/><path d="m420.7 292.9 9.7-17 10.5-8.3 19.5-3 5.5 4.1a139 139 0 0 1 20.3 101.4l-1.5 8.3-1 5.2.5 6.3-3.3 9.1.4 6.7.3 3.6.2 3.6.4 5c.6 2.9-2.5 2.5-2 5 .7 4.4 4 11-1 11l-53-11c-13.5 0-26-16-13-29z" fill="#3f3d56"/><circle cx="445.5" cy="234.1" r="25.7" fill="#ffb8b8"/><path d="M446 259.1q5.6 0 11.2-.8c3.7-.7 12-6.8 14.2-10.4a36 36 0 0 0 3.5-10c1.6-8.2-.2-16.7-5.2-23.5a9 9 0 0 0-4.2-3.3q-3.4-.9-5.7-3.6l-1-1a14 14 0 0 0-6-3q-5.2-1.4-15 2.9a16 16 0 0 1-9.7.3q-.5-.1-.8.2a6 6 0 0 1-4.4 1.8c-1 0-2 1.4-3.2 3.2l-.9 1.1v-.5l-.6.6a7.7 7.7 0 0 0 3.5 12.6q1.5.4 3 .5l2 .2c4 .8 7.2 3.7 8.6 7.6a3 3 0 0 0 4.6 1.4 5 5 0 0 1 4.6-.8q1 .6 1.5 1.7t1.6 2c2.5 1.2 2.7 7 1.8 11.7s-2.6 7.9-4.2 8c-1.2.2-1.3.2-1.4.5l-.1.2.1.1a5 5 0 0 0 2.1.3" fill="#2f2e41"/><path d="M393.9 244h-.1a205 205 0 0 0-56.6 0q-3 0-5.5-1.4a11 11 0 0 1-5-13.3q3-8.1.2-16.4c-1.2-3.3-.7-7 1.2-10a11 11 0 0 1 9-5c18.8 3.3 38 3.3 56.7 0 3.7 0 7.3 1.8 9.5 4.8q2.8 4.2 1.5 9.2a39 39 0 0 0 .2 18.5q.9 3.8-.8 7.2c-2 3.9-6 6.4-10.3 6.3" fill="#fc3c44"/><path d="m418 304.6 10.6-16.5c-7.3-10.6-32.8-25-32.8-25l-33-36a8.7 8.7 0 1 0-11.6 9.5l34.7 50.3z" fill="#ffb8b8"/><path d="M468.1 324.3a20.7 20.7 0 0 1-31.6 3.4l-8.9-8.6s-37.2-19.5-42.6-31.4l-24.4-34.6 16.3-14.7 28.4 25.8s13.1 15.2 22.5 15.4c5.7.2 22.1 7.9 34.6 16 9.5 6.4 12 19.2 5.8 28.7" fill="#3f3d56"/><path d="M220.2 665.8a205 205 0 0 0-56.6 0q-3 0-5.5-1.3a11 11 0 0 1-5-13.4q3-8.1.2-16.4c-1.2-3.3-.8-7 1.2-10a11 11 0 0 1 9-5c18.7 3.4 38 3.4 56.7 0 3.7 0 7.2 1.8 9.5 4.9 1.8 2.6 2.4 6 1.5 9a39 39 0 0 0 .2 18.7q.9 3.7-.8 7.1c-2 4-6 6.4-10.4 6.4" fill="#fc3c44"/><path d="M236.2 623.8a205 205 0 0 0-56.6 0q-3 0-5.5-1.3a11 11 0 0 1-5-13.4q3-8.1.2-16.4c-1.2-3.3-.8-7 1.2-10a11 11 0 0 1 9-5c18.7 3.4 38 3.4 56.7 0 3.7 0 7.2 1.8 9.5 4.9 1.8 2.6 2.4 6 1.5 9a39 39 0 0 0 .2 18.7q.9 3.7-.8 7.1c-2 4-6 6.4-10.4 6.4" fill="#fc3c44"/><path d="M96.2 635.2a205 205 0 0 0 31.8-47q1.6-2.3 4.1-3.7a11 11 0 0 1 14 3.3c3.1 4.6 7.9 8 13.3 9.3q5.4 1.6 7.7 6.7a11 11 0 0 1-1 10.2 164 164 0 0 0-31.7 47c-2.1 3-5.6 5-9.3 5-3.3.1-6.4-1.3-8.5-3.7q-5.6-6.5-15.5-10.3-3.5-1.3-5.4-4.6c-2.1-3.9-2-8.6.5-12.2" fill="#fc3c44"/><path d="m750 667.3-748.8.3a1.2 1.2 0 0 1 0-2.4l748.7-.3a1.2 1.2 0 0 1 0 2.4" fill="#cacaca"/><g fill="#3f3d56"><ellipse cx="160.3" cy="45.3" rx="8.5" ry="8.6"/><ellipse cx="189.5" cy="45.3" rx="8.5" ry="8.6"/><ellipse cx="218.7" cy="45.3" rx="8.5" ry="8.6"/><path d="m252 52.1-.7-.3-5.7-5.8a1 1 0 0 1 0-1.4l5.7-5.9a1 1 0 0 1 1.4 1.4l-5 5.2 5 5.1a1 1 0 0 1-.7 1.7m9.6 0-.7-.3a1 1 0 0 1 0-1.4l5-5.1-5-5.2a1 1 0 1 1 1.4-1.4l5.7 5.9q.6.7 0 1.4l-5.7 5.8zM560 37.6h-10.5q-2 .2-2.2 2.2v10.6q.2 2 2.2 2.2H560q2-.2 2.2-2.2V39.8q-.2-2-2.2-2.2m-26 0h-10.5q-2 .2-2.2 2.2v10.6q.2 2 2.2 2.2H534q2-.2 2.2-2.2V39.8q-.2-2-2.2-2.2m50.6.5H574q-2 .2-2.2 2.2V51q.2 2 2.2 2.2h10.6q2-.2 2.2-2.2V40.3q-.2-2-2.2-2.2m-159.9 4.1h-84.8a2.7 2.7 0 1 0 0 5.3h84.8a2.7 2.7 0 0 0 0-5.3"/></g></svg>