<svg xmlns="http://www.w3.org/2000/svg" viewBox="0 0 758 743.7"><g data-name="Group 4" transform="translate(-221 -78)"><path data-name="Path 31" d="M312.5 78a32 32 0 0 0-32 32v678.5a32 32 0 0 0 32 32h297a32 32 0 0 0 32-32V109.9a32 32 0 0 0-32-32Z" fill="#e6e6e6"/><path data-name="Path 32" d="M621.7 235v-54.4a125 125 0 0 1-80.9-60.2 24 24 0 0 1-14.2 4.7h-43.2a179 179 0 0 0 138.3 110" fill="#fff"/><path data-name="Path 33" d="M621.7 177.5v-52.3a29 29 0 0 0-29.2-29.3h-42v5a24 24 0 0 1-7.3 17.4 122 122 0 0 0 78.5 59" fill="#fff"/><path data-name="Path 34" d="M419.8 125.1h-27a24 24 0 0 1-24-24v-5h-39.4a29 29 0 0 0-29.1 29v648.3a29 29 0 0 0 29.1 29h263.2l3.5-.1a29 29 0 0 0 25.6-29v-477a240 240 0 0 1-202-171.1" fill="#fff"/><path data-name="Path 35" d="M480 125.1h-57c26.2 90 104.6 157 198.7 168v-55a182 182 0 0 1-141.6-113" fill="#fff"/><path data-name="Path 36" d="M601.6 610.9h-270a5 5 0 0 1-5-5v-67a5 5 0 0 1 5-5h270a5 5 0 0 1 5 5v67a5 5 0 0 1-5 5m-270-75a3 3 0 0 0-3 3v67a3 3 0 0 0 3 3h270a3 3 0 0 0 3-3v-67a3 3 0 0 0-3-3Z" fill="#e6e6e6"/><circle data-name="Ellipse 4" cx="21" cy="21" r="21" transform="translate(345.6 551.3)" fill="#3f3d56"/><path data-name="Path 37" d="M415.1 558.3a3.5 3.5 0 0 0 0 7h165a3.5 3.5 0 1 0 0-7Z" fill="#e6e6e6"/><path data-name="Path 38" d="M415.1 579.3a3.5 3.5 0 0 0 0 7h165a3.5 3.5 0 1 0 0-7Z" fill="#e6e6e6"/><path data-name="Path 39" d="M601.6 722.9h-270a5 5 0 0 1-5-5v-67a5 5 0 0 1 5-5h270a5 5 0 0 1 5 5v67a5 5 0 0 1-5 5m-270-75a3 3 0 0 0-3 3v67a3 3 0 0 0 3 3h270a3 3 0 0 0 3-3v-67a3 3 0 0 0-3-3Z" fill="#e6e6e6"/><circle data-name="Ellipse 5" cx="21" cy="21" r="21" transform="translate(345.6 663.3)" fill="#3f3d56"/><path data-name="Path 40" d="M415.1 670.3a3.5 3.5 0 0 0 0 7h165a3.5 3.5 0 1 0 0-7Z" fill="#e6e6e6"/><path data-name="Path 41" d="M415.1 691.3a3.5 3.5 0 0 0 0 7h165a3.5 3.5 0 1 0 0-7Z" fill="#e6e6e6"/><path data-name="Path 42" d="M461 472a95 95 0 0 1-95-95v-.7c.3-52 42.9-94.4 95-94.4a95 95 0 1 1 0 190m0-188a93 93 0 0 0-93 92.4v.5a93 93 0 1 0 93-93" fill="#3f3d56"/><path data-name="Path 43" d="m504 374.8-65-37.5a2 2 0 0 0-3 1.7v75.1a2 2 0 0 0 3 1.7l65-37.5a2 2 0 0 0 0-3.5l-65-37.5a2 2 0 0 0-3 1.7v75.1a2 2 0 0 0 3 1.7l65-37.5a2 2 0 0 0 0-3.5" fill="#fc3c44"/><path data-name="Path 54" d="M978.6 821.7H221v-2.1h758Z" fill="#3f3d56"/><g data-name="Group 1" transform="translate(-869.3 496)"><circle data-name="Ellipse 3" cx="27.9" cy="27.9" r="27.9" transform="translate(1653 -107.8)" fill="#ffb8b8"/><path data-name="Path 21" d="M1679.1 76.8a12.5 12.5 0 0 1 9.5-16.1l1.6-.2 29.5-47.2-26.9-25.6a10.7 10.7 0 1 1 15-15.4l37 36.6h.1a10 10 0 0 1-.7 11.7L1703 69.3l.3 1.2a12.5 12.5 0 0 1-11.2 15h-1a13 13 0 0 1-12-8.7" fill="#ffb8b8"/><path data-name="Path 22" d="M1635 309h-14l-6.6-53.8h20.6Z" fill="#ffb8b8"/><path data-name="Path 23" d="M1639.1 323.1H1593v-1.2a18 18 0 0 1 18-18h28Z" fill="#2f2e41"/><path data-name="Path 24" d="m1773.6 289.7-12 7.1-33.2-42.8 17.7-10.5Z" fill="#ffb8b8"/><path data-name="Path 25" d="m1744.6 323.3-.6-1a18 18 0 0 1 6.3-24.8l24.1-14.3 9.8 16.5Z" fill="#2f2e41"/><path data-name="Path 26" d="M1612.5 285.3c-9.3-110-14.9-212.2 19.3-253.8l.2-.4 57.5 23 .1.2c.2.5 19.3 42.5 14.9 70.8l14.1 65.2 46.2 77.4a5 5 0 0 1-2.3 7.3l-20 8.8a5 5 0 0 1-6.5-2l-50.3-82-28.4-62.9a1.7 1.7 0 0 0-3.2.6l-15.8 148a5 5 0 0 1-5 4.5h-15.7a5 5 0 0 1-5-4.7" fill="#2f2e41"/><path data-name="Path 27" d="m1632 32.3-.3-.1v-.3a97 97 0 0 1 7.5-49.6 39.4 39.4 0 0 1 45.7-23.6A39 39 0 0 1 1710-22a39 39 0 0 1 2.7 31.2c-9 26.3-20.7 51-20.8 51.3l-.3.5Z" fill="#fc3c44"/><path data-name="Path 28" d="M1590.6 94.6a13 13 0 0 1 9.2-13.9l53.7-103.2a10.4 10.4 0 1 1 17.6 10.9l-55 102.4.1 1.9a13 13 0 0 1-13 13.2 13 13 0 0 1-9.9-4.8 13 13 0 0 1-2.7-6.5" fill="#ffb8b8"/><path data-name="Path 29" d="M1647.1-95.6h44.3v-19.3c-9.7-4-19.3-7.2-25 0a19.3 19.3 0 0 0-19.3 19.3" fill="#2f2e41"/><path data-name="Path 30" d="M1693.9-118.4c26.5 0 34 33.3 34 52 0 10.5-4.8 14.3-12.2 15.5l-2.6-14-6.2 14.6h-6.5l-2.1-4.3-4.7 4.2c-18.6 0-33.6 2.7-33.6-16s6.5-52 34-52" fill="#2f2e41"/></g><g data-name="Group 2" transform="translate(684 38)"><path data-name="Path 53" d="M132.7 367v-25.8a2.3 2.3 0 0 0-2.3-2.4h-4.7a2.3 2.3 0 0 0-2.3 2.4v24.3a14.7 14.7 0 1 0 9.3 1.5" fill="#fc3c44"/><circle data-name="Ellipse 8" cx="7" cy="7" r="7" transform="translate(119.5 373)" fill="#fff"/></g></g></svg>